<svg version="1.1" class="phone-no" xmlns="http://www.w3.org/2000/svg" xmlns:xlink="http://www.w3.org/1999/xlink" x="0px" y="0px" viewBox="0 0 184.6 17.5" xml:space="preserve">
    <g>
        <path class="st0" d="M7.5,3.4v6.1h5.9V11H7.5v6.2H5.9V11H0V9.5h5.9V3.4H7.5z" />
        <path class="st0" d="M17,15.6c0.5,0.1,1.1,0,1.8-0.1c1.3-0.2,2.6-0.7,3.5-1.6c1.1-1,1.9-2.5,2.2-4.5h-0.1c-0.9,1.1-2.3,1.8-4,1.8
        c-3,0-5-2.3-5-5.2c0-3.2,2.3-6,5.8-6s5.6,2.8,5.6,7.1c0,3.7-1.2,6.3-2.9,7.9c-1.3,1.3-3.1,2.1-4.9,2.3c-0.8,0.1-1.6,0.2-2.1,0.1
        V15.6z M17.8,5.9c0,2.1,1.3,3.6,3.3,3.6c1.5,0,2.7-0.8,3.3-1.8c0.1-0.2,0.2-0.5,0.2-0.8c0-2.9-1.1-5.1-3.5-5.1
        C19.2,1.7,17.8,3.5,17.8,5.9z" />
        <path class="st0" d="M33.9,2.4L33.9,2.4l-3,1.6l-0.4-1.7l3.7-2h2v16.9h-2.2V2.4z" />
        <path class="st0" d="M59,8.6c0,5.7-2.1,8.9-5.9,8.9c-3.3,0-5.5-3.1-5.6-8.7C47.6,3.1,50,0,53.5,0C57,0,59,3.2,59,8.6z M49.9,8.8
        c0,4.4,1.4,6.9,3.4,6.9c2.3,0,3.5-2.7,3.5-7c0-4.2-1.1-6.9-3.4-6.9C51.3,1.8,49.9,4.2,49.9,8.8z" />
        <path class="st0" d="M71.6,2.4L71.6,2.4l-3,1.6l-0.4-1.7l3.7-2h1.9v16.9h-2.2V2.4z" />
        <path class="st0" d="M80,17.2v-1.4l1.8-1.7c4.3-4.1,6.3-6.3,6.3-8.8c0-1.7-0.8-3.3-3.4-3.3c-1.5,0-2.8,0.8-3.6,1.4l-0.7-1.6
        c1.2-1,2.8-1.7,4.8-1.7c3.6,0,5.2,2.5,5.2,4.9c0,3.1-2.3,5.6-5.8,9.1l-1.4,1.2v0.1h7.6v1.9H80z" />
        <path class="st0" d="M93.9,14.6c0.6,0.4,2.2,1.1,3.7,1.1c2.9,0,3.8-1.9,3.8-3.3c0-2.4-2.2-3.4-4.4-3.4h-1.3V7.3h1.3
        c1.7,0,3.8-0.9,3.8-2.9c0-1.4-0.9-2.5-3-2.5c-1.4,0-2.7,0.6-3.4,1.1l-0.6-1.7C94.8,0.6,96.5,0,98.3,0c3.3,0,4.8,2,4.8,4
        c0,1.7-1,3.2-3.1,4v0.1c2.1,0.4,3.8,2,3.8,4.3c0,2.7-2.1,5.1-6.2,5.1c-1.9,0-3.6-0.6-4.4-1.1L93.9,14.6z" />
        <path class="st0" d="M113.7,17.2v-4.6h-7.9v-1.5l7.5-10.8h2.5v10.5h2.4v1.8h-2.4v4.6H113.7z M113.7,10.8V5.1c0-0.9,0-1.8,0.1-2.7
        h-0.1c-0.5,1-0.9,1.7-1.4,2.5l-4.1,5.7v0.1H113.7z" />
        <path class="st0" d="M130.1,2.2h-6.4L123,6.6c0.4-0.1,0.8-0.1,1.4-0.1c1.3,0,2.6,0.3,3.6,0.9c1.3,0.8,2.4,2.2,2.4,4.3
        c0,3.3-2.6,5.8-6.3,5.8c-1.8,0-3.4-0.5-4.2-1l0.6-1.7c0.7,0.4,2.1,0.9,3.6,0.9c2.2,0,4-1.4,4-3.7c0-2.2-1.5-3.7-4.9-3.7
        c-1,0-1.7,0.1-2.3,0.2l1.1-8.1h8.1V2.2z" />
        <path class="st0" d="M143,1.9c-0.5,0-1.1,0-1.7,0.1c-3.6,0.6-5.5,3.2-5.9,6h0.1c0.8-1.1,2.2-2,4.1-2c3,0,5.1,2.2,5.1,5.5
        c0,3.1-2.1,6-5.6,6c-3.6,0-6-2.8-6-7.2c0-3.3,1.2-6,2.9-7.6c1.4-1.4,3.3-2.2,5.4-2.5C142,0.1,142.6,0,143,0V1.9z M142.3,11.6
        c0-2.4-1.4-3.9-3.5-3.9c-1.4,0-2.7,0.9-3.3,2.1c-0.2,0.3-0.3,0.6-0.3,1c0.1,2.8,1.3,4.8,3.7,4.8C141,15.7,142.3,14.1,142.3,11.6z" />
        <path class="st0" d="M157.7,0.3v1.5l-7.4,15.4h-2.4l7.3-15V2.2H147V0.3H157.7z" />
        <path class="st0" d="M159.8,12.9c0-2.1,1.3-3.6,3.4-4.5l0-0.1c-1.9-0.9-2.7-2.3-2.7-3.8c0-2.7,2.3-4.5,5.2-4.5
        c3.3,0,4.9,2.1,4.9,4.2c0,1.4-0.7,3-2.8,4v0.1c2.1,0.8,3.4,2.3,3.4,4.4c0,2.9-2.5,4.9-5.7,4.9C161.9,17.5,159.8,15.4,159.8,12.9z
         M168.9,12.8c0-2.1-1.4-3-3.7-3.7c-2,0.6-3,1.9-3,3.5c-0.1,1.7,1.2,3.2,3.4,3.2C167.6,15.8,168.9,14.5,168.9,12.8z M162.6,4.3
        c0,1.7,1.3,2.6,3.2,3.1c1.5-0.5,2.6-1.5,2.6-3.1c0-1.4-0.8-2.8-2.9-2.8C163.7,1.6,162.6,2.9,162.6,4.3z" />
        <path class="st0" d="M174.7,15.6c0.5,0.1,1.1,0,1.8-0.1c1.3-0.2,2.6-0.7,3.5-1.6c1.1-1,1.9-2.5,2.2-4.5h-0.1
        c-0.9,1.1-2.3,1.8-4,1.8c-3,0-5-2.3-5-5.2c0-3.2,2.3-6,5.8-6s5.6,2.8,5.6,7.1c0,3.7-1.2,6.3-2.9,7.9c-1.3,1.3-3.1,2.1-4.9,2.3
        c-0.8,0.1-1.6,0.2-2.1,0.1V15.6z M175.5,5.9c0,2.1,1.3,3.6,3.3,3.6c1.5,0,2.7-0.8,3.3-1.8c0.1-0.2,0.2-0.5,0.2-0.8
        c0-2.9-1.1-5.1-3.5-5.1C176.9,1.7,175.5,3.5,175.5,5.9z" />
    </g>
</svg>