<?xml version="1.0" encoding="utf-8"?>
<!-- Generator: Adobe Illustrator 21.0.0, SVG Export Plug-In . SVG Version: 6.00 Build 0)  -->
<svg version="1.1" id="Layer_1" xmlns="http://www.w3.org/2000/svg" xmlns:xlink="http://www.w3.org/1999/xlink" x="0px" y="0px"
	 viewBox="0 0 379.4 188.7" style="enable-background:new 0 0 379.4 188.7;" xml:space="preserve">
<style type="text/css">
	.st0{fill:#42210B;}
</style>
<path class="st0" d="M376.2,98.4c0.2-4.7,1.9-9.6,0.7-14.2c-1.9-7.2-9.8-10.7-16.9-13.1c-15.2-5.1-30.9-9.7-46.9-9.6
	c-16,0.1-32.6,5.3-43.5,17.1c1.2-14.5-13.1-25.9-27.2-29.4c-21.5-5.4-45.6,1.3-61.1,17.2C170.3,20.5,116.9-10.3,71.6,3.2
	C26.4,16.6-1.6,71.5,14.1,116c-10.6,0.9-16.8,14.4-12.9,24.3c4,9.9,15,15.5,25.6,16.2c10.6,0.7,21.1-2.6,31.2-5.9
	c2.9,16.9,19.6,29.4,36.7,30.8c17.1,1.4,34-6.7,46.6-18.5c34.6,29.4,87.8,34.3,127.2,11.8c5.2-3,10.4-6.4,16.3-7.1
	c4.5-0.5,9.1,0.7,13.5,1.7c18.5,3.9,38.7,3.1,55.2-6.2c16.5-9.3,28.2-28.2,25.5-47C378.2,110.1,376,104.4,376.2,98.4z"/>
</svg>
