<?xml version="1.0" encoding="utf-8"?>
<!-- Generator: Adobe Illustrator 21.0.0, SVG Export Plug-In . SVG Version: 6.00 Build 0)  -->
<svg version="1.1" id="Layer_1" xmlns="http://www.w3.org/2000/svg" xmlns:xlink="http://www.w3.org/1999/xlink" x="0px" y="0px"
	 viewBox="0 0 377.1 134.3" style="enable-background:new 0 0 377.1 134.3;" xml:space="preserve">
<style type="text/css">
	.st0{fill:#A67C52;}
</style>
<path class="st0" d="M18.9,68.2C5.8,68.4-3.1,84.4,1,96.9C5,109.3,18.3,117,31.4,118c13.1,0.9,25.9-3.6,37.8-9.1
	c27.1,22.3,69.9,22.8,97.5,1c30.7,29.9,83.9,32.6,117.5,6.1c4.5-3.6,9.1-7.8,14.9-8.2c4.7-0.4,9.2,1.9,13.6,3.8
	c7.8,3.2,16.1,5.2,24.5,5.6c9.6,0.6,19.7-0.9,27.7-6.2c8-5.3,13.6-15,12-24.5c-1.6-9.5-11.7-17.3-20.9-14.7c9-6.6,9.3-20.7,3.3-30
	c-5.9-9.4-16.3-14.9-26.5-19.2C314.6,15,295,10,275.4,11.4c-19.6,1.5-39.2,10-51.2,25.6c1.1-13.1-8-25.6-19.8-31.5
	c-11.8-5.9-25.6-6.3-38.6-4.6c-32.3,4.3-65.6,25.5-70.1,57.8c-13.2-14.5-39.1-14.1-51.9,0.6c-2.9,3.3-5.4,7.4-9.5,9
	C29.5,70.2,24.1,68.1,18.9,68.2z"/>
</svg>
