<?xml version="1.0" encoding="utf-8"?>
<!-- Generator: Adobe Illustrator 21.0.0, SVG Export Plug-In . SVG Version: 6.00 Build 0)  -->
<svg version="1.1" id="Layer_1" xmlns="http://www.w3.org/2000/svg" xmlns:xlink="http://www.w3.org/1999/xlink" x="0px" y="0px"
	 viewBox="0 0 184 96.2" style="enable-background:new 0 0 184 96.2;" xml:space="preserve">
<style type="text/css">
	.st0{fill:#009245;}
</style>
<path class="st0" d="M164.6,41.3c-7.4-2-15.5-1.4-22.6,1.6c3.3-1,5.3-4.5,5.5-7.9c0.2-3.4-1.1-6.8-2.6-9.8
	c-6.4-12.8-18.5-23.3-32.7-25C98-1.4,82.5,7.6,79.4,21.6c-7.4-4.1-16.9-4.1-24.3,0.1S42.7,34,42.4,42.5c-5.4-3.2-12.6-3-17.9,0.3
	c-6,3.8-7.4,9.6-7.8,16.1c-1.7,0-0.8-1.3-5.1,0C7.4,60.2,6,60.5,2,64.7c-2.7,2.8-2,7-1.6,11.2C0.9,81.5,5.8,86,11.3,87.3
	s11.3-0.2,16.2-2.9c11,13.6,33.5,15.9,47,4.7c1.4-1.1,2.7-2.4,4.5-2.8c2.3-0.5,4.5,0.8,6.6,1.9c5.6,3.2,11.7,5.8,18.2,6.2
	c6.5,0.4,13.3-1.9,17.3-7c2.1-2.7,4-6.4,7.3-6.4c1.5,0,2.9,0.9,4.2,1.7c15.2,9.1,37.5,8.3,48.1-5.8c2.2-2.9,3.9-6.6,3.1-10.2
	c-0.8-3.6-4.9-6.5-8.2-4.9c3.4-3.3,3.3-9.1,0.7-13C173.7,44.9,169.2,42.6,164.6,41.3z"/>
</svg>
