<?xml version="1.0" encoding="utf-8"?>
<!-- Generator: Adobe Illustrator 21.0.0, SVG Export Plug-In . SVG Version: 6.00 Build 0)  -->
<svg version="1.1" id="Layer_1" xmlns="http://www.w3.org/2000/svg" xmlns:xlink="http://www.w3.org/1999/xlink" x="0px" y="0px"
	 viewBox="0 0 309.3 88.2" style="enable-background:new 0 0 309.3 88.2;" xml:space="preserve">
<style type="text/css">
	.st0{fill:#C7B299;}
</style>
<path class="st0" d="M210,79.7c26,10.9,56,11,82.8,2c5.2-1.7,10.5-4,13.9-8.3c3.3-4.3,3.8-11.3-0.3-14.9c-3.4-2.9-8.5-2.6-12.9-2.1
	c-2.3-9.6-11.8-16.4-21.6-17.8c-9.8-1.4-19.8,1.6-28.6,6c4.6-7.9,1.4-18.5-5-24.9c-6.4-6.5-15.3-9.8-23.9-12.7
	c-10.7-3.6-21.7-7-32.9-7c-23.7,0.1-46.4,17.4-52.8,40.2c0.9-8.4-8.3-15.1-16.8-14.7c-8.5,0.4-15.8,5.7-22.4,11
	c-9.9-6.4-21.6-11-33.2-9.2c-11.6,1.8-22.4,12-21.7,23.7c-11.3-4.8-25.8-0.5-32.7,9.7c-1,1.4-1.8,3-1.8,4.7c0,2.9,2.4,5.2,5,6.5
	c8.2,3.9,17.9,0.1,26.1-3.8c1.9-0.9,3.8-1.8,5.8-1.7c2.7,0.1,5.1,1.9,7.3,3.6C66,85.7,98,85.7,119.8,70
	c19.9,16.8,49.6,21.1,73.4,10.6c3.2-1.4,6.5-3.1,9.9-2.9C205.6,77.8,207.8,78.8,210,79.7z"/>
</svg>
