<?xml version="1.0" encoding="utf-8"?>
<!-- Generator: Adobe Illustrator 21.0.0, SVG Export Plug-In . SVG Version: 6.00 Build 0)  -->
<svg version="1.1" id="Layer_1" xmlns="http://www.w3.org/2000/svg" xmlns:xlink="http://www.w3.org/1999/xlink" x="0px" y="0px"
	 viewBox="0 0 263.7 140.2" style="enable-background:new 0 0 263.7 140.2;" xml:space="preserve">
<style type="text/css">
	.st0{fill:#C69C6D;}
</style>
<path class="st0" d="M20.3,123.2c8.5-0.1,17.1-0.3,25.6-0.4c24.1,21.3,63.1,23.4,89.4,4.8c2.1-1.5,4.3-3.2,6.9-3.4
	c2.5-0.2,5,0.9,7.3,2c30.6,14.4,67.2,15.6,98.7,3c5.2-2.1,10.6-4.8,13.6-9.6c5.8-9.3-2.6-23.6-13.5-23c5.9-5,3.6-15.2-2.4-20
	c-6-4.8-14.2-5.6-21.8-6.3c11.8-15.8,7.2-40-7-53.7C202.8,2.8,181.6-1.6,162,0.5c-13.4,1.4-26.9,5.6-37.4,14.1
	c-10.6,8.4-18,21.3-18,34.8c-16.5-6.4-37.3,6.9-38.4,24.5c-9.8-0.4-17.9,11.4-13.9,20.4c-12.6-11.1-33-5.5-46.1,5
	c-4.6,3.6-9.1,8.9-7.9,14.6C1.9,121.7,12.3,123.3,20.3,123.2z"/>
</svg>
