<?xml version="1.0" encoding="utf-8"?>
<!-- Generator: Adobe Illustrator 21.0.0, SVG Export Plug-In . SVG Version: 6.00 Build 0)  -->
<svg version="1.1" id="Layer_1" xmlns="http://www.w3.org/2000/svg" xmlns:xlink="http://www.w3.org/1999/xlink" x="0px" y="0px"
	 viewBox="0 0 180.7 73.5" style="enable-background:new 0 0 180.7 73.5;" xml:space="preserve">
<style type="text/css">
	.st0{fill:#FF0000;}
</style>
<path class="st0" d="M100,9c-1.3-0.5-2.2-1.5-3.3-2.4c-8.3-7.5-20.9-7.1-32-5.8c-7.1,0.8-14.5,1.9-20.6,5.7
	c-6.1,3.8-10.7,10.9-9.3,18c-7.7-4.2-18.8,2.9-18.2,11.7c-3.7-1.6-8-3.3-11.8-1.9c-7.1,2.7-6,14.3,0.3,18.5s14.7,3.2,22.2,1.9
	c7.9,12.4,26,17,38.9,9.8c15,13.5,41.3,11.5,54.1-4.1c14.5,7.5,32.6,7.8,47.4,0.7c7.7-3.6,15.2-11.6,12.3-19.6
	c-2.5-6.8-10.8-9-18-10.2c-2.7-11.2-10.8-21-21.3-25.6c-10.5-4.7-23.2-4.2-33.3,1.3C105.1,8.3,102.5,9.9,100,9z"/>
</svg>
