<?xml version="1.0" encoding="utf-8"?>
<!-- Generator: Adobe Illustrator 21.0.0, SVG Export Plug-In . SVG Version: 6.00 Build 0)  -->
<svg version="1.1" id="Layer_1" xmlns="http://www.w3.org/2000/svg" xmlns:xlink="http://www.w3.org/1999/xlink" x="0px" y="0px"
	 viewBox="0 0 263.7 140.2" style="enable-background:new 0 0 263.7 140.2;" xml:space="preserve">
<style type="text/css">
	.st0{fill:#009245;}
</style>
<path class="st0" d="M104.3,115.3c14.9,9.3,36.6,5,46.8-9.3c7.5,4.4,15.2,8.9,23.7,11c8.5,2.1,18,1.6,25.2-3.4
	c2.2-1.5,4.2-3.5,6.8-4.4c3.8-1.4,8-0.2,12,0.4c14.3,2.1,29.5-4.7,37.5-16.7c0.9-1.3,1.7-2.7,1.7-4.2c0.1-2.4-1.6-4.6-3.4-6.3
	c-6.7-6.1-16.3-8.9-25.2-7.1c2.4-9.5-3.3-19.8-11.6-25.1c-8.3-5.3-18.7-6.3-28.5-5.7c0.9-10.1-5.2-20-13.8-25.4
	c-8.6-5.4-19.2-6.7-29.3-5.7C119.9,16.1,95.4,36,90.3,61.9c-16.6-8.7-39-4.2-50.9,10.3c-8.7-1.7-18.4-0.9-25.5,4.4
	c-7.1,5.3-10.6,15.9-6.1,23.6c3.2,5.4,9.6,8.4,15.8,9c6.3,0.6,12.6-0.7,18.7-2.1c10.5,13,31.4,16,45.2,6.6c1.5-1,2.9-2.2,4.7-2.7
	C96.4,109.7,100.5,113,104.3,115.3z"/>
</svg>
