<?xml version="1.0" encoding="utf-8"?>
<!-- Generator: Adobe Illustrator 21.0.0, SVG Export Plug-In . SVG Version: 6.00 Build 0)  -->
<svg version="1.1" id="Layer_1" xmlns="http://www.w3.org/2000/svg" xmlns:xlink="http://www.w3.org/1999/xlink" x="0px" y="0px"
	 viewBox="0 0 317.3 117" style="enable-background:new 0 0 317.3 117;" xml:space="preserve">
<style type="text/css">
	.st0{fill:#65C8D0;}
</style>
<path class="st0" d="M44.9,100.1c12.8,16.5,41,17.5,54.9,1.9c6.5,11,20.6,15.1,33.4,15c15.4-0.1,30.7-5.2,43.2-14.2
	c3-2.2,6.1-4.7,9.8-4.5c2.5,0.1,4.7,1.4,6.9,2.6c14.5,8,30.7,12.8,47.2,14c9.6,0.7,22.4-2.9,22.3-12.5c9.5,5.4,19.9,11.1,30.7,9.4
	c10.8-1.6,20.1-14.5,14.1-23.6c11.8-3.8,13.1-22,4.1-30.5c-9-8.5-23.3-8.5-35-4.6c6.3-10.2,4.3-24.1-2.9-33.7
	C266.2,9.8,254.8,4.2,243,1.6c-33.9-7.4-71.7,11.4-86.3,42.9c-15.2-8.2-36.5-1-43.7,14.7C101.5,52,88.3,46.5,74.8,47.4
	c-13.5,0.9-27.2,9.8-30.3,23c-6.4-5.6-16.5-6.3-23.7-1.8c-7.2,4.6-10.8,14-8.5,22.2c-4.3-2.7-10.7,0.5-12,5.4
	c-1.4,4.9,1.5,10.3,5.8,13c4.3,2.7,9.7,3.2,14.7,2.7C29.9,110.9,38.7,106.7,44.9,100.1z"/>
</svg>
