<?xml version="1.0" encoding="utf-8"?>
<!-- Generator: Adobe Illustrator 21.0.0, SVG Export Plug-In . SVG Version: 6.00 Build 0)  -->
<svg version="1.1" id="Layer_1" xmlns="http://www.w3.org/2000/svg" xmlns:xlink="http://www.w3.org/1999/xlink" x="0px" y="0px"
	 viewBox="0 0 318.9 156.1" style="enable-background:new 0 0 318.9 156.1;" xml:space="preserve">
<style type="text/css">
	.st0{fill:#F7931E;}
</style>
<path class="st0" d="M216.5,98.5c-16.9-28-59.7-35.8-85.4-15.6c14.7-9.9,16.8-32.3,8.1-47.8C130.5,19.6,113.9,10.2,97,4.8
	C80.5-0.5,62.1-2.5,46.3,4.5C29.2,12.2,18,29.4,12.6,47.3c-5.6,18.6-5.7,40,4.8,56.4c-3.9,3.2-5.4,9.1-3.3,13.7
	c-11.6,1-17.7,16.8-11.9,26.9S21.7,158,33,155.2s20.7-10.6,28.8-19c25.5,11.1,56.1,21.9,79.8,7.3c2.4-1.5,4.9-3.3,7.7-3.3
	c2.4,0,4.7,1.2,6.8,2.5c10.5,6.5,22.3,14.5,34.1,10.7c6.6-2.1,11.5-7.6,17.7-10.6c17.7-8.5,37.4,5.2,56.7,8.7
	c16.5,3,34.3-2.1,46.7-13.5c4.6-4.2,8.7-10.1,7.4-16.2c-0.7-3.2-2.8-5.9-5-8.4C290.1,86.8,247,80.3,216.5,98.5z"/>
</svg>
