<?xml version="1.0" encoding="utf-8"?>
<!-- Generator: Adobe Illustrator 21.0.0, SVG Export Plug-In . SVG Version: 6.00 Build 0)  -->
<svg version="1.1" id="Layer_1" xmlns="http://www.w3.org/2000/svg" xmlns:xlink="http://www.w3.org/1999/xlink" x="0px" y="0px"
	 viewBox="0 0 309.3 400" style="enable-background:new 0 0 309.3 400;" xml:space="preserve">
<style type="text/css">
	.st0{fill:#93278F;}
</style>
<path class="st0" d="M239.9,263.2c9.5,2.6,19.7,1.8,29.5,0.9c7-0.6,14.2-1.3,20.5-4.5c6.3-3.2,11.6-9.4,11.5-16.4
	c0-3.1-1.1-6.3-0.5-9.3c0.5-2.6,2.2-4.9,2.2-7.6c0-2.6-1.7-4.9-3.4-6.9c-17.1-19.4-47.9-25.2-70.9-13.4c8.8-6.1,6.4-21.1-2.3-27.5
	c-8.6-6.4-20.4-6.4-31-4.9c16-5,20.8-27.8,11.7-41.9c-9.1-14.1-27-20.1-43.8-20.6c-18.1-0.5-36.8,4.6-50.6,16.3s-22.1,30.5-19,48.3
	c-8.3-2.5-18,0.6-23.3,7.5c-5.3,6.9-5.8,17.1-1.2,24.5c-17.6-3.5-35.9,14.1-33.1,31.9c-6.9,0.1-16.2,2.7-15.6,9.6
	c0.4,4.5,5.5,7.2,10,7.2c4.5,0,8.8-1.8,13.3-2.4c11-1.4,21.4,4.5,31.9,8.2c21.3,7.4,45.9,5.1,65.4-6.3c2.1-1.2,4.2-2.5,6.6-2.5
	c2.3,0.1,4.4,1.4,6.4,2.6c17.4,10.7,39.6,13.1,58.9,6.3c3.3-1.2,6.6-2.6,10.1-2.9C228.9,258.9,234.3,261.7,239.9,263.2z"/>
</svg>
