<?xml version="1.0" encoding="utf-8"?>
<!-- Generator: Adobe Illustrator 21.0.0, SVG Export Plug-In . SVG Version: 6.00 Build 0)  -->
<svg version="1.1" id="Layer_1" xmlns="http://www.w3.org/2000/svg" xmlns:xlink="http://www.w3.org/1999/xlink" x="0px" y="0px"
	 viewBox="0 0 318.9 156.1" style="enable-background:new 0 0 318.9 156.1;" xml:space="preserve">
<style type="text/css">
	.st0{fill:#C7B299;}
</style>
<path class="st0" d="M213.2,109.5c26,10.9,56,11,82.8,2c5.2-1.7,10.5-4,13.9-8.3c3.3-4.3,3.8-11.3-0.3-14.9
	c-3.4-2.9-8.5-2.6-12.9-2.1c-2.3-9.6-11.8-16.4-21.6-17.8c-9.8-1.4-19.8,1.6-28.6,6c4.6-7.9,1.4-18.5-5-24.9
	c-6.4-6.5-15.3-9.8-23.9-12.7c-10.7-3.6-21.7-7-32.9-7C160.7,29.8,138,47.1,131.6,70c0.9-8.4-8.3-15.1-16.8-14.7
	c-8.5,0.4-15.8,5.7-22.4,11c-9.9-6.4-21.6-11-33.2-9.2c-11.6,1.8-22.4,12-21.7,23.7C26.3,76,11.8,80.3,4.9,90.5
	c-1,1.4-1.8,3-1.8,4.7c0,2.9,2.4,5.2,5,6.5c8.2,3.9,17.9,0.1,26.1-3.8c1.9-0.9,3.8-1.8,5.8-1.7c2.7,0.1,5.1,1.9,7.3,3.6
	c21.8,15.8,53.7,15.8,75.5,0c19.9,16.8,49.6,21.1,73.4,10.6c3.2-1.4,6.5-3.1,9.9-2.9C208.7,107.5,210.9,108.5,213.2,109.5z"/>
</svg>
