<?xml version="1.0" encoding="utf-8"?>
<!-- Generator: Adobe Illustrator 21.0.0, SVG Export Plug-In . SVG Version: 6.00 Build 0)  -->
<svg version="1.1" id="Layer_1" xmlns="http://www.w3.org/2000/svg" xmlns:xlink="http://www.w3.org/1999/xlink" x="0px" y="0px"
	 viewBox="0 0 302.3 154.9" style="enable-background:new 0 0 302.3 154.9;" xml:space="preserve">
<style type="text/css">
	.st0{fill:#BA9BC9;}
</style>
<path class="st0" d="M262.5,27.1c-26.8-10.9-62.7-7.1-77.6,17.7C169,29.1,150.3,16.4,130,7.5C117.7,2.1,104.1-1.9,91,0.9
	C74.4,4.6,62.1,18.5,52.2,32.4c-1.6,2.2-3.2,4.5-5.6,5.9c-3.6,2-7.9,1.4-12,1.5C17.6,40,1.9,54.4,0.2,71.4
	c-1.7,17,10.8,34.2,27.4,37.8c-6.1,3.2-12.5,7.4-14.9,13.9c-4.6,12.1,7.8,25.3,20.7,26.6c12.9,1.3,25.2-5.3,36.5-11.7
	c17.8,20,51.7,22.8,72.6,5.9c4.7-3.8,9.4-8.6,15.4-8.3c2.9,0.2,5.6,1.6,8.2,2.9c23.1,11.5,50,15,75.3,9.9
	c9.5-1.9,19.2-5.3,26.1-12.1c6.9-6.9,10.3-18,5.8-26.7c19.4-0.7,32.4-23.5,28.2-42.4C297.2,48.2,280.5,34.3,262.5,27.1z"/>
</svg>
