<?xml version="1.0" encoding="utf-8"?>
<!-- Generator: Adobe Illustrator 21.0.0, SVG Export Plug-In . SVG Version: 6.00 Build 0)  -->
<svg version="1.1" id="Layer_1" xmlns="http://www.w3.org/2000/svg" xmlns:xlink="http://www.w3.org/1999/xlink" x="0px" y="0px"
	 viewBox="0 0 215.6 99" style="enable-background:new 0 0 215.6 99;" xml:space="preserve">
<style type="text/css">
	.st0{fill:#534741;}
</style>
<path class="st0" d="M206.5,75.3c6.7-6.5,10.8-16.5,8.3-25.5c-2.5-9-13.1-15.7-21.8-12.1c3-9.3-1.4-19.8-8.8-26.2
	c-7.4-6.4-17.2-9.2-26.9-10.6c-13.4-1.9-27.6-1-39.8,4.9c-12.2,5.9-22.2,17.4-24,30.8c-8.3-3.4-18.1-2.7-25.8,2
	c-7.6,4.7-12.8,13.1-13.6,22c-7.9-1.6-15.9-3.1-23.9-2c-7.9,1.2-15.9,5.7-18.9,13.2C7.3,68.2,0,72.7,0,78.2c0,5.5,5.1,9.9,10.5,11
	c5.4,1.1,10.9-0.5,16.2-2.1c3.1,8.4,13.1,12.8,22.1,11.8c8.9-1,16.8-6.3,23.5-12.3c11.8,13,34.3,14.2,47.5,2.6
	c1.4-1.3,3-2.7,4.9-2.7c1.1,0,2.2,0.6,3.2,1.1c7.4,4.1,15.2,7.2,23.4,9.4c6.3,1.7,13,2.7,19.3,1c6.3-1.8,11.9-7,12.4-13.5
	C191.6,85.2,200.3,81.4,206.5,75.3z"/>
</svg>
