<?xml version="1.0" encoding="utf-8"?>
<!-- Generator: Adobe Illustrator 21.0.0, SVG Export Plug-In . SVG Version: 6.00 Build 0)  -->
<svg version="1.1" id="Layer_1" xmlns="http://www.w3.org/2000/svg" xmlns:xlink="http://www.w3.org/1999/xlink" x="0px" y="0px"
	 viewBox="0 0 377.1 134.3" style="enable-background:new 0 0 377.1 134.3;" xml:space="preserve">
<style type="text/css">
	.st0{fill:#0071BC;}
</style>
<path class="st0" d="M172.3,59.6c-13.1-15.1-39.2-16.1-53.4-2.1c-2.9,2.9-5.5,6.4-9.2,8.1c-2.8,1.3-5.9,1.4-8.8,2.3
	c-7.4,2.2-13,9.5-13.2,17.2c-7.4-5.7-19.2,2.8-18.5,12.1c0.7,9.3,10.1,16,19.3,17c9.3,1,18.4-2.3,27.1-5.6
	c23.2,26.3,69.3,27.4,93.7,2.2c17.1,16.8,42.3,24.9,66,21.4c17.1-2.6,34.8-12.9,38.6-29.8c10.4,4.7,24.8-1.8,26.8-13.1
	c2-11.3-11.1-22.6-21.5-17.9c5.1-16.4-2.9-34.4-15-46.6c-19.3-19.7-49.5-28-76.1-21C201.3,10.7,179.2,32.9,172.3,59.6z"/>
</svg>
